<?xml version="1.0" standalone="no"?>
<!DOCTYPE svg PUBLIC "-//W3C//DTD SVG 20010904//EN"
 "http://www.w3.org/TR/2001/REC-SVG-20010904/DTD/svg10.dtd">
<svg version="1.0" xmlns="http://www.w3.org/2000/svg"
 width="644.000000pt" height="465.000000pt" viewBox="0 0 644.000000 465.000000"
 preserveAspectRatio="xMidYMid meet">
<metadata>
Created by potrace 1.15, written by Peter Selinger 2001-2017
</metadata>
<g transform="translate(0.000000,465.000000) scale(0.100000,-0.100000)"
fill="#000000" stroke="none">
<path d="M2310 4468 c-47 -5 -217 -6 -379 -3 l-294 6 6 -83 c16 -209 29 -840
23 -1115 l-6 -303 484 0 484 0 12 88 c7 48 20 138 30 200 9 62 13 112 8 112
-5 0 -87 -16 -181 -36 -108 -22 -213 -38 -283 -41 l-111 -6 -6 64 c-8 71 4
164 22 182 9 9 61 6 219 -11 114 -13 222 -26 240 -29 l32 -5 0 191 c0 145 -3
191 -12 192 -33 4 -137 -3 -273 -17 -82 -8 -175 -14 -205 -12 l-55 3 0 140 0
140 55 3 c80 5 259 -15 415 -47 77 -15 134 -22 131 -16 -2 5 -43 101 -92 213
l-88 202 -45 -1 c-25 -1 -84 -6 -131 -11z"/>
<path d="M3126 4448 c-138 -5 -251 -10 -253 -12 -2 -2 4 -50 12 -106 27 -180
36 -362 42 -867 l6 -493 417 0 418 0 7 53 c10 76 53 268 75 332 10 30 17 55
14 55 -2 0 -64 -11 -137 -24 -162 -29 -295 -40 -330 -27 -45 17 -51 78 -43
491 4 201 13 418 19 483 7 65 10 119 7 121 -3 1 -117 -2 -254 -6z"/>
<path d="M5563 4413 c31 -245 40 -665 24 -1182 l-8 -263 178 6 c98 4 209 9
246 12 l69 6 -6 32 c-36 205 -50 710 -32 1194 l9 242 -243 0 -243 0 6 -47z"/>
<path d="M84 4422 c30 -146 36 -281 36 -858 l0 -594 386 0 c378 0 388 1 431
22 69 35 244 171 308 240 98 106 184 252 224 382 21 67 21 72 5 120 -9 28 -38
95 -65 149 -117 239 -287 440 -432 512 -85 42 -76 41 -600 49 l-298 5 5 -27z
m540 -367 c84 -14 302 -149 378 -234 58 -64 74 -107 58 -156 -18 -55 -100
-136 -215 -214 -196 -132 -300 -130 -321 6 -6 40 4 273 22 531 5 71 8 82 22
78 10 -2 35 -7 56 -11z"/>
<path d="M4273 4426 c-111 -6 -203 -13 -205 -16 -2 -3 -2 -328 0 -722 l4 -718
250 0 250 0 -7 78 c-4 42 -11 106 -16 142 -5 36 -9 109 -9 162 0 114 1 115
103 124 56 5 232 -8 242 -18 2 -2 7 -113 11 -246 l7 -242 220 0 220 0 -6 128
c-4 70 -10 401 -14 736 l-6 609 -71 -6 c-39 -3 -149 -12 -244 -18 -148 -11
-172 -15 -168 -28 30 -102 43 -448 18 -473 -18 -18 -161 -23 -253 -9 -116 18
-113 8 -104 294 6 197 5 237 -6 235 -8 0 -105 -6 -216 -12z"/>
<path d="M3753 2889 c-6 -6 -8 -29 -5 -54 2 -24 -1 -67 -8 -96 -12 -48 -24
-65 -118 -162 -118 -121 -167 -156 -296 -212 -67 -29 -106 -55 -153 -99 -118
-110 -153 -205 -160 -437 -4 -109 -1 -165 11 -222 46 -223 183 -448 371 -607
117 -99 185 -113 214 -43 11 26 8 37 -33 117 -63 123 -80 209 -73 360 3 67 13
146 21 176 8 30 14 55 13 56 -1 0 -30 16 -64 34 -74 39 -138 91 -158 131 -8
15 -15 50 -15 78 0 63 33 107 88 117 43 8 132 -8 197 -37 26 -11 50 -18 53
-14 4 3 8 38 10 76 4 59 -1 85 -27 163 -37 108 -52 192 -41 222 5 11 43 56 84
100 90 92 137 179 144 260 6 72 -24 124 -55 93z"/>
<path d="M1768 2434 c-10 -9 -10 -379 -1 -1001 l6 -473 217 0 216 0 -22 153
c-32 209 -31 357 0 357 32 0 128 -141 251 -370 43 -80 80 -147 82 -149 1 -2
88 11 192 29 l188 33 -102 156 c-161 245 -214 354 -200 409 4 16 52 71 119
137 168 164 187 221 112 329 -45 65 -210 229 -303 301 -113 88 -114 88 -453
93 -162 2 -298 0 -302 -4z m481 -325 c71 -36 153 -111 168 -154 15 -46 -2 -88
-62 -154 -61 -65 -133 -115 -181 -125 -28 -6 -32 -4 -44 24 -14 35 -21 391 -8
423 11 26 57 21 127 -14z"/>
<path d="M4271 2433 l-133 -4 6 -32 c38 -217 56 -558 56 -1070 l0 -377 419 0
419 0 11 83 c13 88 54 264 76 328 8 21 13 39 12 39 -1 0 -58 -11 -127 -24
-154 -31 -318 -43 -348 -27 -40 21 -45 94 -38 486 6 317 15 483 31 578 l5 27
-128 -2 c-70 -1 -187 -4 -261 -5z"/>
<path d="M5467 2433 c-136 -4 -137 -4 -133 -26 37 -175 48 -365 55 -932 l6
-520 417 -3 417 -2 5 32 c21 129 40 218 65 309 16 57 28 105 27 106 -1 2 -58
-8 -127 -22 -145 -28 -273 -40 -323 -31 -59 11 -61 31 -59 430 2 311 10 492
29 624 l6 42 -123 -2 c-68 -1 -186 -4 -262 -5z"/>
<path d="M850 2410 c-164 -21 -362 -131 -520 -288 -288 -286 -289 -526 -3
-862 91 -107 227 -224 303 -261 88 -43 143 -48 548 -49 l342 0 0 23 c0 12 -7
79 -17 147 -20 155 -22 473 -4 659 12 113 12 134 0 142 -8 5 -103 9 -211 9
l-198 0 0 -275 0 -276 -26 -26 c-24 -23 -30 -25 -82 -19 -127 15 -361 185
-418 304 -34 70 -18 125 57 200 111 110 404 262 700 364 l122 41 -114 58 c-63
32 -148 69 -189 82 -83 27 -206 39 -290 27z"/>
<path d="M629 635 c-16 -61 -81 -288 -87 -303 -3 -10 7 -12 44 -10 45 3 48 5
56 36 7 26 13 32 36 32 51 0 71 -11 74 -39 3 -24 7 -26 52 -29 43 -3 48 -1 41
15 -6 15 -67 257 -80 318 -4 17 -12 20 -65 20 l-61 0 -10 -40z"/>
<path d="M1710 498 l0 -178 95 0 95 0 0 28 c0 15 3 38 7 51 5 20 3 23 -11 18
-10 -4 -35 -10 -57 -13 -37 -6 -39 -5 -39 21 0 26 2 27 45 23 l45 -3 0 47 0
47 -50 -6 -50 -6 0 33 0 33 55 -7 c61 -7 62 -5 41 53 l-12 35 -82 0 -82 1 0
-177z"/>
<path d="M2780 651 c-113 -76 -121 -206 -18 -284 18 -14 45 -30 59 -35 24 -10
27 -7 47 33 l21 44 -36 18 c-20 10 -45 30 -56 44 -17 24 -18 30 -6 55 8 16 32
38 56 50 l41 21 -24 42 c-14 22 -29 41 -33 41 -4 0 -27 -13 -51 -29z"/>
<path d="M4069 635 c-16 -61 -81 -288 -87 -303 -3 -10 7 -12 44 -10 45 3 48 5
56 36 7 26 13 32 36 32 51 0 71 -11 74 -39 3 -24 7 -26 52 -29 43 -3 48 -1 41
15 -6 15 -67 257 -80 318 -4 17 -12 20 -65 20 l-61 0 -10 -40z"/>
<path d="M4900 651 c-113 -76 -121 -206 -18 -284 18 -14 45 -30 59 -35 24 -10
27 -7 47 33 l21 44 -36 18 c-20 10 -45 30 -56 44 -17 24 -18 30 -6 55 8 16 32
38 56 50 l41 21 -24 42 c-14 22 -29 41 -33 41 -4 0 -27 -13 -51 -29z"/>
<path d="M6160 498 l0 -178 95 0 95 0 0 28 c0 15 3 38 7 51 5 20 3 23 -11 18
-10 -4 -35 -10 -57 -13 -37 -6 -39 -5 -39 21 0 26 2 27 45 23 l45 -3 0 47 0
47 -50 -6 -50 -6 0 33 0 33 55 -7 c61 -7 62 -5 41 53 l-12 35 -82 0 -82 1 0
-177z"/>
<path d="M913 663 l-33 -4 0 -123 c0 -178 1 -182 66 -203 50 -15 55 -15 72 0
23 21 32 21 32 2 0 -11 12 -15 45 -15 l45 0 0 175 c0 190 3 181 -58 169 l-31
-6 -3 -117 c-3 -113 -4 -116 -26 -119 -45 -7 -52 12 -52 134 0 85 -3 114 -12
112 -7 0 -28 -3 -45 -5z"/>
<path d="M1176 654 c-3 -9 -6 -31 -6 -50 0 -32 2 -34 33 -32 l32 3 3 -127 3
-128 44 0 45 0 0 131 0 132 30 -6 c29 -6 30 -5 30 27 0 19 3 41 6 50 5 14 -8
16 -104 16 -91 0 -111 -3 -116 -16z"/>
<path d="M1453 663 c-23 -4 -23 -6 -23 -174 l0 -169 49 0 48 0 -1 58 c-1 57
-1 57 29 57 30 0 30 -1 33 -57 l3 -58 39 0 40 0 0 175 c0 133 -3 175 -12 175
-7 0 -29 -3 -48 -6 l-35 -6 4 -50 c4 -57 -7 -73 -43 -64 -24 6 -26 10 -26 66
0 64 0 64 -57 53z"/>
<path d="M1944 624 c3 -26 6 -105 6 -175 l0 -129 46 0 47 0 -5 92 -6 93 24
-30 c13 -17 43 -58 66 -92 41 -60 45 -63 86 -63 l42 0 0 171 0 170 -42 -3 -43
-3 0 -83 c0 -45 -3 -82 -6 -82 -3 0 -36 41 -73 90 -66 87 -70 90 -109 90 l-40
0 7 -46z"/>
<path d="M2296 654 c-3 -9 -6 -31 -6 -50 0 -32 2 -34 33 -32 l32 3 3 -127 3
-128 44 0 45 0 0 131 0 132 30 -6 c29 -6 30 -5 30 27 0 19 3 41 6 50 5 14 -8
16 -104 16 -91 0 -111 -3 -116 -16z"/>
<path d="M2554 654 c3 -9 6 -88 6 -175 l0 -160 43 3 42 3 0 172 0 173 -49 0
c-40 0 -47 -3 -42 -16z"/>
<path d="M3054 654 c3 -9 6 -88 6 -175 l0 -160 43 3 42 3 0 172 0 173 -49 0
c-40 0 -47 -3 -42 -16z"/>
<path d="M3194 624 c3 -26 6 -105 6 -175 l0 -129 46 0 47 0 -5 92 -6 93 24
-30 c13 -17 43 -58 66 -92 41 -60 45 -63 86 -63 l42 0 0 171 0 170 -42 -3 -43
-3 0 -83 c0 -45 -3 -82 -6 -82 -3 0 -36 41 -73 90 -66 87 -70 90 -109 90 l-40
0 7 -46z"/>
<path d="M3550 495 l0 -175 78 0 c77 0 78 0 114 38 44 45 68 92 68 129 0 38
-43 128 -76 158 -24 22 -36 25 -105 25 l-79 0 0 -175z"/>
<path d="M3844 654 c3 -9 6 -88 6 -175 l0 -160 43 3 42 3 0 172 0 173 -49 0
c-40 0 -47 -3 -42 -16z"/>
<path d="M4334 624 c3 -26 6 -105 6 -175 l0 -129 46 0 47 0 -5 92 -6 93 24
-30 c13 -17 43 -58 66 -92 41 -60 45 -63 86 -63 l42 0 0 171 0 170 -42 -3 -43
-3 0 -83 c0 -45 -3 -82 -6 -82 -3 0 -36 41 -73 90 -66 87 -70 90 -109 90 l-40
0 7 -46z"/>
<path d="M5073 663 l-33 -4 0 -123 c0 -178 1 -182 66 -203 50 -15 55 -15 72 0
23 21 32 21 32 2 0 -11 12 -15 45 -15 l45 0 0 175 c0 190 3 181 -58 169 l-31
-6 -3 -117 c-3 -113 -4 -116 -26 -119 -45 -7 -52 12 -52 134 0 85 -3 114 -12
112 -7 0 -28 -3 -45 -5z"/>
<path d="M5334 654 c3 -9 6 -88 6 -175 l0 -160 43 3 42 3 0 172 0 173 -49 0
c-40 0 -47 -3 -42 -16z"/>
<path d="M5532 658 c-19 -25 -42 -77 -42 -98 0 -11 9 -38 20 -60 29 -56 26
-85 -10 -112 l-31 -22 46 -24 c52 -26 64 -22 91 29 18 36 18 80 -1 126 -24 57
-20 100 12 116 l27 15 -42 21 c-48 24 -56 25 -70 9z"/>
<path d="M5674 654 c3 -9 6 -88 6 -175 l0 -160 43 3 42 3 0 172 0 173 -49 0
c-40 0 -47 -3 -42 -16z"/>
<path d="M5824 624 c3 -26 6 -105 6 -175 l0 -129 46 0 47 0 -5 92 -6 93 24
-30 c13 -17 43 -58 66 -92 41 -60 45 -63 86 -63 l42 0 0 171 0 170 -42 -3 -43
-3 0 -83 c0 -45 -3 -82 -6 -82 -3 0 -36 41 -73 90 -66 87 -70 90 -109 90 l-40
0 7 -46z"/>
</g>
</svg>
